<svg width="800" height="400" viewBox="0 0 800 400" xmlns="http://www.w3.org/2000/svg"><defs><pattern id="satori_pattern_id_1" x="0" y="0" width="0.125" height="0.25" patternUnits="objectBoundingBox"><radialGradient id="satori_radial_id_1"><stop offset="0" stop-color="lightgray"/><stop offset="0.02" stop-color="lightgray"/><stop offset="0" stop-color="transparent"/><stop offset="1" stop-color="transparent"/></radialGradient><mask id="satori_mask_id_1"><rect x="0" y="0" width="100" height="100" fill="#fff"/></mask><rect x="0" y="0" width="100" height="100" fill="transparent"/><circle cx="75" cy="75" width="100" height="100" r="106.06601717798213" fill="url(#satori_radial_id_1)" mask="url(#satori_mask_id_1)"/></pattern><pattern id="satori_pattern_id_0" x="0" y="0" width="0.125" height="0.25" patternUnits="objectBoundingBox"><radialGradient id="satori_radial_id_0"><stop offset="0" stop-color="lightgray"/><stop offset="0.02" stop-color="lightgray"/><stop offset="0" stop-color="transparent"/><stop offset="1" stop-color="transparent"/></radialGradient><mask id="satori_mask_id_0"><rect x="0" y="0" width="100" height="100" fill="#fff"/></mask><rect x="0" y="0" width="100" height="100" fill="transparent"/><circle cx="25" cy="25" width="100" height="100" r="106.06601717798213" fill="url(#satori_radial_id_0)" mask="url(#satori_mask_id_0)"/></pattern></defs><mask id="satori_om-id"><rect x="0" y="0" width="800" height="400" fill="#fff"/></mask><rect x="0" y="0" width="800" height="400" fill="white"/><rect x="0" y="0" width="800" height="400" fill="url(#satori_pattern_id_1)"/><rect x="0" y="0" width="800" height="400" fill="url(#satori_pattern_id_0)"/><mask id="satori_om-id-0"><rect x="285" y="109" width="230" height="80" fill="#fff"/></mask><clipPath id="satori_cp-id-0-0"><rect x="360" y="109" width="80" height="80"/></clipPath><mask id="satori_om-id-0-0"><rect x="360" y="109" width="80" height="80" fill="#fff"/></mask><image x="360" y="109" width="80" height="80" href="data:image/svg+xml;utf8,%3Csvg  fill=%22black%22 xmlns=%22http://www.w3.org/2000/svg%22 width=%2280%22 height=%2280%22 viewBox=%220 0 65 65%22%3E%3Cpath d=%22M61.4682 17.7506C61.0023 16.8374 59.8974 16.5142 58.9028 16.7628C56.0586 17.4737 53.1462 16.7949 49.8715 15.0359C42.9005 11.2914 37.3959 5.2736 31.136 0.496147C30.7617 0.210505 30.296 0.0701559 29.8268 0.108362C28.7128 0.19905 27.6148 0.345908 26.5355 0.546098C24.8223 0.863869 24.562 3.10969 25.9911 4.10654C33.2451 9.16643 39.1762 16.1017 47.0322 20.3216C51.438 22.6882 56.3239 23.9547 61.4243 22.2787C62.4096 21.955 62.87 20.8566 62.4676 19.9007C62.16 19.17 61.8265 18.4529 61.4682 17.7506Z%22%3E%3C/path%3E%3Cpath d=%22M52.2763 6.70749C53.7062 7.80545 52.8154 9.66563 51.1039 9.09945C49.7085 8.63787 48.3489 8.02885 47.0322 7.32159C45.623 6.56462 44.2215 5.67274 42.8343 4.69648C41.1831 3.53453 42.2008 1.40632 44.0871 2.12632C47.0491 3.25693 49.8032 4.80835 52.2763 6.70749Z%22%3E%3C/path%3E%3Cpath d=%22M64.913 30.1063C64.799 28.5405 62.9298 27.9005 61.5649 28.6763C61.3546 28.7959 61.1461 28.9063 60.9397 29.0081C57.4335 30.7369 53.9309 30.2164 49.8715 28.0359C46.0438 25.9799 42.1949 22.7025 37.994 19.1255C37.5939 18.7848 37.1904 18.4412 36.7836 18.0959C32.279 14.2717 27.3307 10.1999 22.0924 8.01952C19.3974 6.89776 16.5888 6.26264 13.7069 6.37184C13.3267 6.38624 12.9621 6.52332 12.661 6.75575C10.286 8.58866 8.17168 10.7429 6.38315 13.1533C5.75558 13.9991 6.97543 14.9704 7.86276 14.4031V14.4031C11.9681 11.7784 15.7755 11.8892 19.7868 13.5588C24.025 15.3229 28.2898 18.7556 32.9006 22.6699C33.3216 23.0274 33.746 23.3892 34.1734 23.7537L34.175 23.7551C38.2511 27.2311 42.6034 30.9426 47.0322 33.3216C52.4358 36.2242 58.569 36.9945 64.0362 34.1585C64.6358 33.8474 64.9991 33.2211 65 32.5455C65.0011 31.7318 64.9721 30.9179 64.913 30.1063Z%22%3E%3C/path%3E%3Cpath d=%22M63.069 43.5618C63.4891 42.4011 62.0468 41.4622 60.9397 42.0081V42.0081C57.4335 43.7369 53.9309 43.2164 49.8715 41.0359C46.0441 38.98 42.1953 35.7029 37.9947 32.1261C37.5945 31.7853 37.1905 31.4413 36.7836 31.0959C32.279 27.2717 27.3307 23.1999 22.0924 21.0195C16.6272 18.7447 10.6947 18.4711 4.63081 22.3479C3.49282 23.0755 2.36253 23.9418 1.23786 24.9548C0.939582 25.2235 0.735537 25.5809 0.655358 25.9742C0.225631 28.0824 0 30.2649 0 32.5V32.5C0 33.4713 1.2255 33.8265 1.83544 33.0706C3.95682 30.4413 5.96891 28.6139 7.86276 27.4031C11.9681 24.7784 15.7755 24.8892 19.7868 26.5588C24.025 28.3229 28.2898 31.7556 32.9006 35.6699C33.3222 36.0279 33.7472 36.3903 34.1752 36.7553C38.2512 40.2312 42.6035 43.9427 47.0322 46.3216C51.0315 48.4698 55.4264 49.7116 60.0183 48.6689C60.5317 48.5524 60.9626 48.2098 61.2099 47.745C61.9236 46.4038 62.546 45.0066 63.069 43.5618Z%22%3E%3C/path%3E%3Cpath d=%22M51.9749 58.5212C53.2976 57.5297 52.7158 55.3912 51.2124 54.704C50.7719 54.5026 50.3251 54.2796 49.8715 54.0359C46.0441 51.98 42.1953 48.7029 37.9947 45.1261C37.5945 44.7853 37.1905 44.4413 36.7836 44.0959C32.279 40.2717 27.3307 36.1999 22.0924 34.0195C16.6272 31.7447 10.6947 31.4711 4.63081 35.3479C3.53603 36.0479 2.44837 36.8762 1.36599 37.8401C0.859862 38.2908 0.638802 38.9799 0.787072 39.6412C0.978231 40.4938 1.20289 41.3338 1.4596 42.1596C1.90023 43.577 3.70791 43.8654 4.78564 42.8447C5.84303 41.8433 6.86917 41.0383 7.86276 40.4031C11.9681 37.7784 15.7755 37.8892 19.7868 39.5589C24.025 41.3229 28.2898 44.7556 32.9006 48.6699C33.3222 49.0279 33.7472 49.3903 34.1752 49.7553C38.2512 53.2312 42.6035 56.9427 47.0322 59.3216C47.444 59.5428 47.8599 59.7543 48.2798 59.9548C48.8609 60.2321 49.543 60.1857 50.0841 59.8369C50.7305 59.4202 51.3611 58.9813 51.9749 58.5212Z%22%3E%3C/path%3E%3Cpath d=%22M40.422 64.0276C41.9395 63.6476 42.2594 61.7172 41.0576 60.7158C40.0549 59.8803 39.0356 59.0124 37.9947 58.1261C37.5945 57.7853 37.1905 57.4413 36.7836 57.0959C32.279 53.2717 27.3307 49.1999 22.0924 47.0195C16.6701 44.7626 10.9297 44.9024 5.8557 47.631C4.93034 48.1287 4.65576 49.3037 5.22823 50.1847C5.66053 50.85 6.1165 51.4985 6.59496 52.1289C7.20533 52.9332 8.32842 53.0751 9.23096 52.6225C12.827 50.8193 16.224 51.0759 19.7868 52.5589C24.025 54.3229 28.2898 57.7556 32.9006 61.6699C33.3222 62.0279 33.7472 62.3903 34.1752 62.7553C34.7325 63.2306 35.2952 63.7104 35.8625 64.1906C36.2868 64.5497 36.8427 64.7172 37.3924 64.6342C38.4188 64.4792 39.4295 64.2762 40.422 64.0276Z%22%3E%3C/path%3E%3Cpath d=%22M23.7036 63.7956C25.624 64.3342 26.4421 62.1974 24.6838 61.2559C23.8285 60.7979 22.9645 60.3825 22.0924 60.0195C20.7744 59.4709 19.4291 59.0387 18.0614 58.753C16.269 58.3786 15.6517 60.3578 17.2686 61.2171C19.2955 62.2944 21.4501 63.1634 23.7036 63.7956Z%22%3E%3C/path%3E%3C/svg%3E" preserveAspectRatio="none" clip-path="url(#satori_cp-id-0-0)" mask="url(#satori_om-id-0-0)"/><mask id="satori_om-id-0-0-0"><rect x="360" y="109" width="0" height="80" fill="#fff"/></mask><mask id="satori_om-id-0-0-1"><rect x="360" y="109" width="0" height="80" fill="#fff"/></mask><mask id="satori_om-id-0-0-2"><rect x="360" y="109" width="0" height="80" fill="#fff"/></mask><mask id="satori_om-id-0-0-3"><rect x="360" y="109" width="0" height="80" fill="#fff"/></mask><mask id="satori_om-id-0-0-4"><rect x="360" y="109" width="0" height="80" fill="#fff"/></mask><mask id="satori_om-id-0-0-5"><rect x="360" y="109" width="0" height="80" fill="#fff"/></mask><mask id="satori_om-id-0-0-6"><rect x="360" y="109" width="0" height="80" fill="#fff"/></mask><mask id="satori_om-id-1"><rect x="248" y="219" width="305" height="72" fill="#fff"/></mask><mask id="satori_om-id-1-0"><rect x="248" y="219" width="305" height="72" fill="#fff"/></mask><path fill="black" d="M258.3 244.5L249.4 244.5L249.4 239.5L273.3 239.5L273.3 244.5L264.4 244.5L264.4 268.5L258.3 268.5L258.3 244.5ZM280.9 268.5L274.9 268.5L274.9 246.7L280.7 246.7L280.7 250.5L281.0 250.5Q281.6 248.5 283.0 247.5Q284.4 246.4 286.2 246.4L286.2 246.4Q286.7 246.4 287.2 246.5Q287.7 246.5 288.1 246.6L288.1 246.6L288.1 252.0Q287.7 251.9 286.9 251.8Q286.2 251.7 285.6 251.7L285.6 251.7Q284.2 251.7 283.2 252.2Q282.1 252.8 281.5 253.8Q280.9 254.9 280.9 256.2L280.9 256.2L280.9 268.5ZM296.8 269.0L296.8 269.0Q294.7 269.0 293.1 268.2Q291.5 267.5 290.5 266.0Q289.6 264.6 289.6 262.4L289.6 262.4Q289.6 260.6 290.3 259.4Q290.9 258.2 292.1 257.4Q293.2 256.7 294.7 256.3Q296.2 255.9 297.8 255.7L297.8 255.7Q299.7 255.5 300.9 255.4Q302.0 255.2 302.5 254.8Q303.1 254.5 303.1 253.8L303.1 253.8L303.1 253.7Q303.1 252.3 302.2 251.6Q301.4 250.9 299.8 250.9L299.8 250.9Q298.2 250.9 297.2 251.6Q296.3 252.3 296.0 253.4L296.0 253.4L290.4 252.9Q290.8 250.9 292.0 249.5Q293.3 248.0 295.3 247.2Q297.2 246.4 299.9 246.4L299.9 246.4Q301.7 246.4 303.3 246.9Q305.0 247.3 306.3 248.2Q307.6 249.1 308.4 250.5Q309.1 251.9 309.1 253.8L309.1 253.8L309.1 268.5L303.4 268.5L303.4 265.5L303.2 265.5Q302.7 266.5 301.8 267.3Q300.9 268.1 299.7 268.5Q298.5 269.0 296.8 269.0ZM298.6 264.8L298.6 264.8Q299.9 264.8 300.9 264.2Q301.9 263.7 302.5 262.8Q303.1 261.9 303.1 260.7L303.1 260.7L303.1 258.4Q302.8 258.6 302.3 258.8Q301.8 258.9 301.2 259.0Q300.6 259.2 300.0 259.2Q299.4 259.3 298.9 259.4L298.9 259.4Q297.8 259.6 297.0 259.9Q296.3 260.2 295.8 260.8Q295.4 261.4 295.4 262.2L295.4 262.2Q295.4 263.5 296.3 264.1Q297.2 264.8 298.6 264.8ZM321.9 268.9L321.9 268.9Q319.4 268.9 317.4 267.6Q315.4 266.3 314.2 263.8Q313.0 261.3 313.0 257.7L313.0 257.7Q313.0 253.9 314.2 251.4Q315.4 248.9 317.4 247.7Q319.4 246.4 321.8 246.4L321.8 246.4Q323.7 246.4 324.9 247.1Q326.1 247.7 326.9 248.6Q327.7 249.5 328.1 250.4L328.1 250.4L328.2 250.4L328.2 239.5L334.3 239.5L334.3 268.5L328.3 268.5L328.3 265.0L328.1 265.0Q327.6 266.0 326.9 266.8Q326.1 267.7 324.9 268.3Q323.6 268.9 321.9 268.9ZM323.8 264.1L323.8 264.1Q325.2 264.1 326.3 263.3Q327.3 262.5 327.8 261.0Q328.4 259.6 328.4 257.6L328.4 257.6Q328.4 255.7 327.8 254.3Q327.3 252.8 326.3 252.0Q325.2 251.3 323.8 251.3L323.8 251.3Q322.3 251.3 321.3 252.1Q320.2 252.9 319.7 254.3Q319.2 255.7 319.2 257.6L319.2 257.6Q319.2 259.5 319.7 261.0Q320.3 262.4 321.3 263.3Q322.3 264.1 323.8 264.1ZM349.2 269.0L349.2 269.0Q345.8 269.0 343.4 267.6Q341.0 266.2 339.7 263.7Q338.4 261.2 338.4 257.7L338.4 257.7Q338.4 254.4 339.7 251.8Q341.0 249.3 343.3 247.9Q345.7 246.4 348.9 246.4L348.9 246.4Q351.1 246.4 353.0 247.1Q354.8 247.8 356.2 249.2Q357.6 250.6 358.4 252.7Q359.2 254.7 359.2 257.5L359.2 257.5L359.2 259.2L340.8 259.2L340.8 255.4L353.5 255.4Q353.5 254.1 352.9 253.1Q352.4 252.1 351.4 251.5Q350.4 251.0 349.0 251.0L349.0 251.0Q347.7 251.0 346.6 251.6Q345.5 252.2 344.9 253.3Q344.3 254.3 344.3 255.6L344.3 255.6L344.3 259.2Q344.3 260.8 344.9 262.0Q345.5 263.2 346.7 263.8Q347.8 264.5 349.3 264.5L349.3 264.5Q350.3 264.5 351.1 264.2Q352.0 263.9 352.6 263.3Q353.2 262.7 353.5 261.9L353.5 261.9L359.1 262.3Q358.6 264.3 357.3 265.8Q356.0 267.3 353.9 268.1Q351.9 269.0 349.2 269.0ZM369.2 268.5L363.1 268.5L363.1 246.7L369.0 246.7L369.0 250.5L369.2 250.5Q369.8 248.5 371.2 247.5Q372.6 246.4 374.5 246.4L374.5 246.4Q374.9 246.4 375.5 246.5Q376.0 246.5 376.4 246.6L376.4 246.6L376.4 252.0Q376.0 251.9 375.2 251.8Q374.4 251.7 373.8 251.7L373.8 251.7Q372.5 251.7 371.4 252.2Q370.4 252.8 369.8 253.8Q369.2 254.9 369.2 256.2L369.2 256.2L369.2 268.5ZM385.8 268.5L379.6 268.5L379.6 239.5L398.9 239.5L398.9 244.5L385.8 244.5L385.8 251.5L397.6 251.5L397.6 256.5L385.8 256.5L385.8 268.5ZM411.2 269.0L411.2 269.0Q407.8 269.0 405.4 267.6Q403.0 266.1 401.7 263.6Q400.4 261.1 400.4 257.7L400.4 257.7Q400.4 254.3 401.7 251.8Q403.0 249.3 405.4 247.9Q407.8 246.4 411.2 246.4L411.2 246.4Q414.5 246.4 416.9 247.9Q419.3 249.3 420.6 251.8Q421.9 254.3 421.9 257.7L421.9 257.7Q421.9 261.1 420.6 263.6Q419.3 266.1 416.9 267.6Q414.5 269.0 411.2 269.0ZM411.2 264.3L411.2 264.3Q412.7 264.3 413.7 263.4Q414.7 262.6 415.2 261.1Q415.7 259.6 415.7 257.7L415.7 257.7Q415.7 255.8 415.2 254.3Q414.7 252.8 413.7 251.9Q412.7 251.1 411.2 251.1L411.2 251.1Q409.7 251.1 408.6 251.9Q407.6 252.8 407.1 254.3Q406.6 255.8 406.6 257.7L406.6 257.7Q406.6 259.6 407.1 261.1Q407.6 262.6 408.6 263.4Q409.7 264.3 411.2 264.3ZM431.9 268.5L425.8 268.5L425.8 246.7L431.7 246.7L431.7 250.5L431.9 250.5Q432.5 248.5 433.9 247.5Q435.3 246.4 437.2 246.4L437.2 246.4Q437.6 246.4 438.2 246.5Q438.7 246.5 439.1 246.6L439.1 246.6L439.1 252.0Q438.7 251.9 437.9 251.8Q437.1 251.7 436.5 251.7L436.5 251.7Q435.2 251.7 434.1 252.2Q433.1 252.8 432.5 253.8Q431.9 254.9 431.9 256.2L431.9 256.2L431.9 268.5ZM451.1 269.0L451.1 269.0Q447.7 269.0 445.3 267.6Q442.9 266.2 441.6 263.7Q440.3 261.2 440.3 257.7L440.3 257.7Q440.3 254.4 441.6 251.8Q442.9 249.3 445.3 247.9Q447.7 246.4 450.9 246.4L450.9 246.4Q453.0 246.4 454.9 247.1Q456.8 247.8 458.2 249.2Q459.6 250.6 460.3 252.7Q461.1 254.7 461.1 257.5L461.1 257.5L461.1 259.2L442.7 259.2L442.7 255.4L455.4 255.4Q455.4 254.1 454.9 253.1Q454.3 252.1 453.3 251.5Q452.3 251.0 451.0 251.0L451.0 251.0Q449.6 251.0 448.5 251.6Q447.5 252.2 446.9 253.3Q446.3 254.3 446.3 255.6L446.3 255.6L446.3 259.2Q446.3 260.8 446.9 262.0Q447.5 263.2 448.6 263.8Q449.7 264.5 451.2 264.5L451.2 264.5Q452.2 264.5 453.1 264.2Q453.9 263.9 454.5 263.3Q455.1 262.7 455.4 261.9L455.4 261.9L461.0 262.3Q460.6 264.3 459.3 265.8Q457.9 267.3 455.9 268.1Q453.8 269.0 451.1 269.0ZM474.9 269.0L474.9 269.0Q471.6 269.0 469.2 267.5Q466.8 266.1 465.5 263.6Q464.2 261.0 464.2 257.7L464.2 257.7Q464.2 254.4 465.5 251.8Q466.8 249.3 469.2 247.9Q471.6 246.4 474.9 246.4L474.9 246.4Q477.8 246.4 479.9 247.5Q482.0 248.5 483.3 250.4Q484.5 252.3 484.7 254.8L484.7 254.8L479.0 254.8Q478.7 253.2 477.7 252.2Q476.7 251.2 475.0 251.2L475.0 251.2Q473.6 251.2 472.6 251.9Q471.5 252.7 470.9 254.1Q470.3 255.6 470.3 257.6L470.3 257.6Q470.3 259.7 470.9 261.2Q471.5 262.6 472.5 263.4Q473.6 264.2 475.0 264.2L475.0 264.2Q476.0 264.2 476.9 263.8Q477.7 263.3 478.2 262.5Q478.8 261.7 479.0 260.5L479.0 260.5L484.7 260.5Q484.5 263.0 483.3 264.9Q482.1 266.8 480.0 267.9Q477.8 269.0 474.9 269.0ZM494.8 269.0L494.8 269.0Q492.7 269.0 491.1 268.2Q489.4 267.5 488.5 266.0Q487.5 264.6 487.5 262.4L487.5 262.4Q487.5 260.6 488.2 259.4Q488.9 258.2 490.0 257.4Q491.2 256.7 492.7 256.3Q494.1 255.9 495.7 255.7L495.7 255.7Q497.6 255.5 498.8 255.4Q500.0 255.2 500.5 254.8Q501.0 254.5 501.0 253.8L501.0 253.8L501.0 253.7Q501.0 252.3 500.2 251.6Q499.3 250.9 497.8 250.9L497.8 250.9Q496.2 250.9 495.2 251.6Q494.2 252.3 493.9 253.4L493.9 253.4L488.3 252.9Q488.7 250.9 490.0 249.5Q491.2 248.0 493.2 247.2Q495.2 246.4 497.8 246.4L497.8 246.4Q499.6 246.4 501.3 246.9Q503.0 247.3 504.3 248.2Q505.6 249.1 506.3 250.5Q507.1 251.9 507.1 253.8L507.1 253.8L507.1 268.5L501.3 268.5L501.3 265.5L501.2 265.5Q500.6 266.5 499.8 267.3Q498.9 268.1 497.6 268.5Q496.4 269.0 494.8 269.0ZM496.5 264.8L496.5 264.8Q497.9 264.8 498.9 264.2Q499.9 263.7 500.5 262.8Q501.1 261.9 501.1 260.7L501.1 260.7L501.1 258.4Q500.8 258.6 500.3 258.8Q499.8 258.9 499.2 259.0Q498.6 259.2 498.0 259.2Q497.4 259.3 496.9 259.4L496.9 259.4Q495.8 259.6 495.0 259.9Q494.2 260.2 493.8 260.8Q493.3 261.4 493.3 262.2L493.3 262.2Q493.3 263.5 494.2 264.1Q495.1 264.8 496.5 264.8ZM529.9 252.9L529.9 252.9L524.4 253.3Q524.3 252.6 523.8 252.0Q523.3 251.4 522.6 251.1Q521.8 250.7 520.7 250.7L520.7 250.7Q519.3 250.7 518.4 251.3Q517.4 251.9 517.4 252.9L517.4 252.9Q517.4 253.7 518.0 254.2Q518.7 254.7 520.2 255.1L520.2 255.1L524.1 255.9Q527.3 256.5 528.9 258.0Q530.4 259.4 530.4 261.8L530.4 261.8Q530.4 263.9 529.2 265.5Q527.9 267.2 525.7 268.1Q523.6 269.0 520.7 269.0L520.7 269.0Q516.4 269.0 513.8 267.2Q511.3 265.3 510.8 262.2L510.8 262.2L516.8 261.9Q517.0 263.2 518.1 263.9Q519.1 264.6 520.7 264.6L520.7 264.6Q522.3 264.6 523.3 264.0Q524.3 263.4 524.3 262.4L524.3 262.4Q524.3 261.6 523.6 261.0Q522.9 260.5 521.5 260.2L521.5 260.2L517.7 259.5Q514.5 258.8 513.0 257.2Q511.4 255.7 511.4 253.2L511.4 253.2Q511.4 251.1 512.5 249.6Q513.7 248.1 515.8 247.3Q517.8 246.4 520.6 246.4L520.6 246.4Q524.8 246.4 527.2 248.2Q529.5 249.9 529.9 252.9ZM532.7 246.7L545.9 246.7L545.9 251.3L532.7 251.3L532.7 246.7ZM535.7 262.6L535.7 241.5L541.8 241.5L541.8 261.8Q541.8 262.7 542.0 263.1Q542.3 263.6 542.7 263.8Q543.2 264.0 543.8 264.0L543.8 264.0Q544.2 264.0 544.6 263.9Q545.1 263.8 545.3 263.8L545.3 263.8L546.3 268.3Q545.8 268.4 545.0 268.6Q544.2 268.8 543.0 268.8L543.0 268.8Q540.8 268.9 539.1 268.3Q537.5 267.6 536.6 266.2Q535.7 264.8 535.7 262.6L535.7 262.6Z "/></svg>